HIERARCHY
ROOT Root
{
  OFFSET 0.0 0.0 0.0
  CHANNELS 6 Xposition Yposition Zposition Zrotation Yrotation Xrotation
  JOINT Hips
  {
    OFFSET 0.0 100.0 0.0
    CHANNELS 6 Xposition Yposition Zposition Zrotation Yrotation Xrotation
    JOINT Spine1
    {
      OFFSET 5.003913 -0.037094 -0.013727
      CHANNELS 3 Zrotation Yrotation Xrotation
      JOINT Spine2
      {
        OFFSET 7.125363 -1e-06 0.0
        CHANNELS 3 Zrotation Yrotation Xrotation
        JOINT Chest
        {
          OFFSET 7.594027 1e-06 0.0
          CHANNELS 3 Zrotation Yrotation Xrotation
          JOINT Neck1
          {
            OFFSET 26.313086 -0.460272 -0.181672
            CHANNELS 3 Zrotation Yrotation Xrotation
            JOINT Neck2
            {
              OFFSET 8.045911 0.0 0.0
              CHANNELS 3 Zrotation Yrotation Xrotation
              JOINT Head
              {
                OFFSET 6.432774 0.0 0.0
                CHANNELS 3 Zrotation Yrotation Xrotation
                JOINT HeadEnd
                {
                  OFFSET 16.169773 0.06451 0.00362
                  CHANNELS 3 Zrotation Yrotation Xrotation
                }
                JOINT Jaw
                {
                  OFFSET 0.108741 3.12938 0.002639
                  CHANNELS 3 Zrotation Yrotation Xrotation
                }
                JOINT LeftEye
                {
                  OFFSET 4.45173 8.166359 3.206392
                  CHANNELS 3 Zrotation Yrotation Xrotation
                }
                JOINT RightEye
                {
                  OFFSET 4.436895 8.135758 -3.222429
                  CHANNELS 3 Zrotation Yrotation Xrotation
                }
              }
            }
          }
          JOINT LeftShoulder
          {
            OFFSET 23.218927 5.195579 1.621656
            CHANNELS 3 Zrotation Yrotation Xrotation
            JOINT LeftArm
            {
              OFFSET 15.902118 2e-06 -2e-06
              CHANNELS 3 Zrotation Yrotation Xrotation
              JOINT LeftForeArm
              {
                OFFSET 28.739307 0.0 -1e-06
                CHANNELS 3 Zrotation Yrotation Xrotation
                JOINT LeftHand
                {
                  OFFSET 27.093981 -4e-06 0.0
                  CHANNELS 3 Zrotation Yrotation Xrotation
                  JOINT LeftHandThumb1
                  {
                    OFFSET 2.276781 3.380274 0.83384
                    CHANNELS 3 Zrotation Yrotation Xrotation
                    JOINT LeftHandThumb2
                    {
                      OFFSET 4.705309 -1e-06 -1e-06
                      CHANNELS 3 Zrotation Yrotation Xrotation
                      JOINT LeftHandThumb3
                      {
                        OFFSET 2.798515 0.0 3e-06
                        CHANNELS 3 Zrotation Yrotation Xrotation
                        JOINT LeftHandThumbEnd
                        {
                          OFFSET 3.180793 4e-06 -4e-06
                          CHANNELS 3 Zrotation Yrotation Xrotation
                        }
                      }
                    }
                  }
                  JOINT LeftHandIndex1
                  {
                    OFFSET 3.247786 2.352677 0.137192
                    CHANNELS 3 Zrotation Yrotation Xrotation
                    JOINT LeftHandIndex2
                    {
                      OFFSET 6.367095 1e-06 0.0
                      CHANNELS 3 Zrotation Yrotation Xrotation
                      JOINT LeftHandIndex3
                      {
                        OFFSET 3.662364 0.0 0.0
                        CHANNELS 3 Zrotation Yrotation Xrotation
                        JOINT LeftHandIndex4
                        {
                          OFFSET 2.329242 4e-06 -4e-06
                          CHANNELS 3 Zrotation Yrotation Xrotation
                          JOINT LeftHandIndexEnd
                          {
                            OFFSET 2.767823 1e-06 0.0
                            CHANNELS 3 Zrotation Yrotation Xrotation
                          }
                        }
                      }
                    }
                  }
                  JOINT LeftHandMiddle1
                  {
                    OFFSET 3.163612 0.945023 -0.406112
                    CHANNELS 3 Zrotation Yrotation Xrotation
                    JOINT LeftHandMiddle2
                    {
                      OFFSET 6.276789 3e-06 0.0
                      CHANNELS 3 Zrotation Yrotation Xrotation
                      JOINT LeftHandMiddle3
                      {
                        OFFSET 4.35652 -1e-06 4e-06
                        CHANNELS 3 Zrotation Yrotation Xrotation
                        JOINT LeftHandMiddle4
                        {
                          OFFSET 2.996877 0.0 8e-06
                          CHANNELS 3 Zrotation Yrotation Xrotation
                          JOINT LeftHandMiddleEnd
                          {
                            OFFSET 2.323256 3e-06 -4e-06
                            CHANNELS 3 Zrotation Yrotation Xrotation
                          }
                        }
                      }
                    }
                  }
                  JOINT LeftHandRing1
                  {
                    OFFSET 2.882606 -0.309162 0.107445
                    CHANNELS 3 Zrotation Yrotation Xrotation
                    JOINT LeftHandRing2
                    {
                      OFFSET 6.033198 0.0 4e-06
                      CHANNELS 3 Zrotation Yrotation Xrotation
                      JOINT LeftHandRing3
                      {
                        OFFSET 4.350578 3e-06 0.0
                        CHANNELS 3 Zrotation Yrotation Xrotation
                        JOINT LeftHandRing4
                        {
                          OFFSET 2.651321 2e-06 -7e-06
                          CHANNELS 3 Zrotation Yrotation Xrotation
                          JOINT LeftHandRingEnd
                          {
                            OFFSET 1.937663 1e-06 -4e-06
                            CHANNELS 3 Zrotation Yrotation Xrotation
                          }
                        }
                      }
                    }
                  }
                  JOINT LeftHandPinky1
                  {
                    OFFSET 2.865315 -1.525436 0.575687
                    CHANNELS 3 Zrotation Yrotation Xrotation
                    JOINT LeftHandPinky2
                    {
                      OFFSET 5.54936 1e-06 -8e-06
                      CHANNELS 3 Zrotation Yrotation Xrotation
                      JOINT LeftHandPinky3
                      {
                        OFFSET 3.070974 0.0 -4e-06
                        CHANNELS 3 Zrotation Yrotation Xrotation
                        JOINT LeftHandPinky4
                        {
                          OFFSET 1.549672 1e-06 0.0
                          CHANNELS 3 Zrotation Yrotation Xrotation
                          JOINT LeftHandPinkyEnd
                          {
                            OFFSET 1.952123 0.0 0.0
                            CHANNELS 3 Zrotation Yrotation Xrotation
                          }
                        }
                      }
                    }
                  }
                }
              }
            }
          }
          JOINT RightShoulder
          {
            OFFSET 23.161716 5.296122 -1.380114
            CHANNELS 3 Zrotation Yrotation Xrotation
            JOINT RightArm
            {
              OFFSET -16.027195 -2e-06 1.1e-05
              CHANNELS 3 Zrotation Yrotation Xrotation
              JOINT RightForeArm
              {
                OFFSET -28.736639 4e-06 2e-06
                CHANNELS 3 Zrotation Yrotation Xrotation
                JOINT RightHand
                {
                  OFFSET -27.133619 6e-06 0.0
                  CHANNELS 3 Zrotation Yrotation Xrotation
                  JOINT RightHandThumb1
                  {
                    OFFSET -2.274328 -3.351035 -0.83067
                    CHANNELS 3 Zrotation Yrotation Xrotation
                    JOINT RightHandThumb2
                    {
                      OFFSET -4.703594 -3e-06 2e-06
                      CHANNELS 3 Zrotation Yrotation Xrotation
                      JOINT RightHandThumb3
                      {
                        OFFSET -2.794935 -4e-06 -3e-06
                        CHANNELS 3 Zrotation Yrotation Xrotation
                        JOINT RightHandThumbEnd
                        {
                          OFFSET -3.183852 4e-06 1e-06
                          CHANNELS 3 Zrotation Yrotation Xrotation
                        }
                      }
                    }
                  }
                  JOINT RightHandIndex1
                  {
                    OFFSET -3.253496 -2.33755 -0.127667
                    CHANNELS 3 Zrotation Yrotation Xrotation
                    JOINT RightHandIndex2
                    {
                      OFFSET -6.344434 0.0 0.0
                      CHANNELS 3 Zrotation Yrotation Xrotation
                      JOINT RightHandIndex3
                      {
                        OFFSET -3.654871 0.0 -8e-06
                        CHANNELS 3 Zrotation Yrotation Xrotation
                        JOINT RightHandIndex4
                        {
                          OFFSET -2.327586 -1e-06 0.0
                          CHANNELS 3 Zrotation Yrotation Xrotation
                          JOINT RightHandIndexEnd
                          {
                            OFFSET -2.770001 3e-06 8e-06
                            CHANNELS 3 Zrotation Yrotation Xrotation
                          }
                        }
                      }
                    }
                  }
                  JOINT RightHandMiddle1
                  {
                    OFFSET -3.168223 -0.944764 0.411762
                    CHANNELS 3 Zrotation Yrotation Xrotation
                    JOINT RightHandMiddle2
                    {
                      OFFSET -6.266691 -1e-06 -4e-06
                      CHANNELS 3 Zrotation Yrotation Xrotation
                      JOINT RightHandMiddle3
                      {
                        OFFSET -4.348901 0.0 0.0
                        CHANNELS 3 Zrotation Yrotation Xrotation
                        JOINT RightHandMiddle4
                        {
                          OFFSET -3.00024 2e-06 -4e-06
                          CHANNELS 3 Zrotation Yrotation Xrotation
                          JOINT RightHandMiddleEnd
                          {
                            OFFSET -2.321477 -4e-06 -4e-06
                            CHANNELS 3 Zrotation Yrotation Xrotation
                          }
                        }
                      }
                    }
                  }
                  JOINT RightHandRing1
                  {
                    OFFSET -2.885654 0.293261 -0.119232
                    CHANNELS 3 Zrotation Yrotation Xrotation
                    JOINT RightHandRing2
                    {
                      OFFSET -6.032835 -1e-06 -4e-06
                      CHANNELS 3 Zrotation Yrotation Xrotation
                      JOINT RightHandRing3
                      {
                        OFFSET -4.33881 0.0 -4e-06
                        CHANNELS 3 Zrotation Yrotation Xrotation
                        JOINT RightHandRing4
                        {
                          OFFSET -2.654903 -4e-06 -4e-06
                          CHANNELS 3 Zrotation Yrotation Xrotation
                          JOINT RightHandRingEnd
                          {
                            OFFSET -1.935122 0.0 4e-06
                            CHANNELS 3 Zrotation Yrotation Xrotation
                          }
                        }
                      }
                    }
                  }
                  JOINT RightHandPinky1
                  {
                    OFFSET -2.866241 1.503904 -0.60527
                    CHANNELS 3 Zrotation Yrotation Xrotation
                    JOINT RightHandPinky2
                    {
                      OFFSET -5.553177 -2e-06 0.0
                      CHANNELS 3 Zrotation Yrotation Xrotation
                      JOINT RightHandPinky3
                      {
                        OFFSET -3.062664 -1e-06 -4e-06
                        CHANNELS 3 Zrotation Yrotation Xrotation
                        JOINT RightHandPinky4
                        {
                          OFFSET -1.546529 2e-06 4e-06
                          CHANNELS 3 Zrotation Yrotation Xrotation
                          JOINT RightHandPinkyEnd
                          {
                            OFFSET -1.952341 0.0 -4e-06
                            CHANNELS 3 Zrotation Yrotation Xrotation
                          }
                        }
                      }
                    }
                  }
                }
              }
            }
          }
        }
      }
    }
    JOINT LeftLeg
    {
      OFFSET -8.443107 2.567604 10.043214
      CHANNELS 3 Zrotation Yrotation Xrotation
      JOINT LeftShin
      {
        OFFSET 43.229198 1e-06 -1e-06
        CHANNELS 3 Zrotation Yrotation Xrotation
        JOINT LeftFoot
        {
          OFFSET 42.298611 1e-06 1e-06
          CHANNELS 3 Zrotation Yrotation Xrotation
          JOINT LeftToeBase
          {
            OFFSET 14.165858 1e-06 0.0
            CHANNELS 3 Zrotation Yrotation Xrotation
            JOINT LeftToeEnd
            {
              OFFSET 6.7141 -0.234461 0.0
              CHANNELS 3 Zrotation Yrotation Xrotation
            }
          }
        }
      }
    }
    JOINT RightLeg
    {
      OFFSET -8.303923 2.592729 -10.047278
      CHANNELS 3 Zrotation Yrotation Xrotation
      JOINT RightShin
      {
        OFFSET -43.369682 0.0 1e-06
        CHANNELS 3 Zrotation Yrotation Xrotation
        JOINT RightFoot
        {
          OFFSET -42.260784 4e-06 2e-06
          CHANNELS 3 Zrotation Yrotation Xrotation
          JOINT RightToeBase
          {
            OFFSET -14.222245 -2e-06 -1e-06
            CHANNELS 3 Zrotation Yrotation Xrotation
            JOINT RightToeEnd
            {
              OFFSET -6.660062 0.232574 -2e-06
              CHANNELS 3 Zrotation Yrotation Xrotation
            }
          }
        }
      }
    }
  }
}
MOTION
Frames: 5
Frame Time: 0.03333333333333333
0.0 0.0 0.0 0.0 -0.0 0.0 -0.538782 99.799057 5.652644 90.514671 2.799827 89.992752 -2.33197 0.307994 -0.201774 -11.627417 -0.666744 -0.026984 16.954037 -0.056142 -2.125664 19.072458 3.762499 2.680393 -2.477394 -0.600615 0.556458 -28.248402 0.68253 -0.180437 6e-06 -0.0 -0.0 0.039968 0.00271 0.020005 0.035322 0.036805 0.018628 0.021468 -0.028504 0.026671 -127.511261 -74.970505 142.353058 34.838444 -53.541134 17.050215 31.604277 0.16435 -0.072657 0.985919 -0.330399 7.672244 17.636625 -26.322725 52.411182 -19.466661 -14.395594 29.410385 -1e-06 -8.774821 -1e-06 16.177736 -18.222258 6.147028 -0.609776 -1.795654 -3.889325 -4.807088 -11.046809 -2.937851 5e-06 -20.976015 -2e-06 -5.019969 -25.033556 -4.03188 4e-06 -1e-06 -1e-06 -10.634533 -5.68697 -3.565587 10.573274 -17.922947 -3.1139 3e-06 -13.821206 -0.0 -0.501778 -31.181501 -4.027015 -11.792952 -59.919147 7.669547 -13.982713 -7.150199 -2.875043 13.77273 -8.401491 -3.218241 0.347735 -34.211552 0.771652 -0.963032 -17.73337 2.62102 -1e-06 0.0 1e-06 -17.346418 -20.095217 -4.201779 21.757555 -1.638374 3.866424 1e-06 -6.338823 1e-06 -1.69759 -22.591743 -6.194004 1e-06 -5e-06 -2e-06 30.043871 -69.590729 167.92804 39.740517 -46.748455 11.990973 30.5595 -0.352988 0.00605 -0.653186 -0.029195 11.559496 22.182112 -20.375891 49.933319 -16.701815 -16.743526 28.47653 -3e-06 -12.6906 -3e-06 16.250145 -17.879259 2.514069 -0.105919 -1.513856 -4.27588 -5.03904 -5.612873 -2.95356 4e-06 -11.020524 -1e-06 -6.111296 -15.895334 -3.840469 -1e-06 1e-06 1e-06 -10.283367 -5.680289 -4.341839 11.028292 -11.302406 -2.372635 -1.384268 -14.238583 -6.320124 -0.625438 -26.924187 -3.827602 -4.384639 -49.902378 -3.95844 -13.708523 -7.363476 -3.72094 18.141146 -14.052739 -3.242673 6e-06 -18.78727 -4e-06 -0.429711 -8.456042 2.555503 2e-06 -1e-06 -1e-06 -15.923532 -20.094482 -5.473585 30.41921 -7.190827 1.735926 1e-06 -8.162922 -3e-06 -1.861899 -22.861471 -6.167947 -1e-06 -2e-06 1e-06 -177.899551 -4.104424 -10.354148 12.006127 -0.046197 0.008641 -79.79393 1.297509 -5.076881 -5.864449 1.544643 2.120458 -0.999999 1e-06 -0.0 0.83419 -4.691222 -12.922076 15.098902 0.009154 -0.141299 -81.203583 -0.895241 -5.874475 -5.901034 0.665075 1.649538 -1.000001 -0.0 -0.0 
0.0 0.0 0.0 0.0 -0.0 0.0 -0.561011 99.815628 5.690117 90.514603 2.76496 90.041771 -2.361781 0.284902 -0.210547 -11.619631 -0.652292 0.015403 16.932438 -0.048334 -2.179701 18.996237 3.816742 2.670217 -2.457891 -0.607662 0.603184 -28.237274 0.675287 -0.198625 6e-06 0.0 -0.0 0.03869 0.00022 0.036699 0.041721 0.034176 0.036465 0.028267 -0.030753 0.04162 -127.436264 -75.001793 142.285812 34.950367 -53.543934 16.8424 31.532156 0.126435 -0.141687 0.99194 -0.399876 7.739668 17.636629 -26.322727 52.411179 -19.466658 -14.395596 29.410378 -0.0 -8.774822 -2e-06 16.162281 -18.169737 6.104275 -0.609776 -1.795653 -3.889328 -4.807089 -11.046811 -2.937848 4e-06 -20.976015 -2e-06 -5.019971 -25.033556 -4.031879 7e-06 -2e-06 -1e-06 -10.634533 -5.686969 -3.565585 10.573271 -17.922951 -3.113898 2e-06 -13.821209 -1e-06 -0.501776 -31.181505 -4.027016 -11.711649 -59.877838 7.649372 -13.982712 -7.150197 -2.875042 13.772729 -8.401491 -3.218238 0.347736 -34.211555 0.771651 -0.963028 -17.73337 2.62102 -1e-06 1e-06 0.0 -17.346413 -20.095215 -4.201784 21.757555 -1.638375 3.866428 0.0 -6.338822 1e-06 -1.69759 -22.591742 -6.194002 -0.0 -4e-06 -3e-06 30.000151 -69.53418 168.042953 39.737934 -46.702065 11.757416 30.349314 -0.381858 -0.012316 -0.589383 -0.190656 11.536824 22.182112 -20.375885 49.933308 -16.701811 -16.743528 28.476522 -2e-06 -12.690598 -1e-06 16.243471 -17.90045 2.514391 -0.10592 -1.513858 -4.275882 -5.03904 -5.612871 -2.953557 4e-06 -11.020523 -2e-06 -6.111295 -15.89533 -3.840474 -0.0 1e-06 -0.0 -10.28337 -5.680289 -4.341836 11.028294 -11.302402 -2.372636 -1.384268 -14.238579 -6.320124 -0.625437 -26.924185 -3.8276 -4.417016 -50.024197 -3.929565 -13.708524 -7.363477 -3.720939 18.141146 -14.052734 -3.242674 6e-06 -18.78727 -4e-06 -0.429711 -8.456039 2.555502 2e-06 -1e-06 0.0 -15.923538 -20.094484 -5.473579 30.41921 -7.190822 1.735924 0.0 -8.162922 -2e-06 -1.861903 -22.861467 -6.167942 0.0 -2e-06 -1e-06 -177.778427 -4.096747 -10.311963 11.715482 -0.039944 0.050841 -79.686089 1.325113 -5.184947 -5.882943 1.568029 2.130135 -0.999998 0.0 -0.0 0.919457 -4.647611 -12.945444 14.909743 0.001823 -0.13265 -81.138878 -0.935644 -5.858914 -5.926319 0.650707 1.647566 -1.000003 -0.0 0.0 
0.0 0.0 0.0 0.0 -0.0 0.0 -0.573099 99.823738 5.70368 90.528595 2.741873 90.078804 -2.384896 0.255455 -0.216436 -11.617942 -0.650868 0.029573 16.946325 -0.048388 -2.206242 18.929739 3.842663 2.678735 -2.483621 -0.611303 0.597434 -28.184645 0.648264 -0.226993 6e-06 0.0 -0.0 0.033923 -0.001296 0.039959 0.029713 0.029902 0.04077 0.01905 -0.029716 0.043018 -127.383003 -75.020744 142.240311 35.012218 -53.510681 16.744751 31.532736 0.115048 -0.178423 0.963499 -0.462068 7.613361 17.636629 -26.322739 52.411201 -19.46666 -14.395597 29.410395 -0.0 -8.774822 1e-06 16.156677 -18.156792 6.082217 -0.609777 -1.795653 -3.889328 -4.807091 -11.046813 -2.937848 2e-06 -20.976019 1e-06 -5.019974 -25.03356 -4.03188 5e-06 -1e-06 1e-06 -10.634533 -5.686971 -3.565583 10.573275 -17.922953 -3.113901 2e-06 -13.821213 -0.0 -0.501782 -31.181507 -4.027013 -11.715728 -59.826031 7.615719 -13.982716 -7.150198 -2.875041 13.772732 -8.401493 -3.21824 0.347732 -34.211559 0.771654 -0.963031 -17.733376 2.621019 -1e-06 1e-06 0.0 -17.346422 -20.095219 -4.201776 21.757565 -1.638373 3.866427 -0.0 -6.338824 2e-06 -1.697594 -22.591751 -6.194004 -2e-06 -3e-06 0.0 29.862507 -69.483505 168.232986 39.659534 -46.641735 11.542048 30.224493 -0.400833 -0.030447 -0.594982 -0.276135 11.461015 22.18211 -20.375895 49.933319 -16.701815 -16.743526 28.47653 -4e-06 -12.690601 1e-06 16.239189 -17.875687 2.521835 -0.105917 -1.513856 -4.27588 -5.039042 -5.612875 -2.953556 4e-06 -11.020527 -4e-06 -6.111299 -15.895338 -3.840468 -0.0 -1e-06 1e-06 -10.283371 -5.680291 -4.341837 11.028296 -11.302406 -2.372636 -1.384269 -14.238584 -6.320124 -0.625439 -26.924194 -3.827601 -4.43566 -50.081154 -3.918989 -13.708527 -7.363479 -3.720936 18.141153 -14.052741 -3.242676 8e-06 -18.787271 -3e-06 -0.429713 -8.456043 2.555503 2e-06 -1e-06 -1e-06 -15.923534 -20.094484 -5.473584 30.419214 -7.190826 1.735928 0.0 -8.162922 -2e-06 -1.861904 -22.861473 -6.167943 -0.0 -3e-06 -0.0 -177.719986 -4.07493 -10.275067 11.548802 -0.040082 0.081209 -79.616295 1.314562 -5.220367 -5.85433 1.573153 2.135326 -0.999999 -0.0 0.0 0.940392 -4.646271 -12.962739 14.846475 0.003591 -0.130604 -81.118736 -0.96999 -5.859926 -5.898462 0.648507 1.646914 -1.000002 0.0 0.0 
0.0 0.0 0.0 0.0 -0.0 0.0 -0.578053 99.825851 5.68807 90.550858 2.72211 90.107498 -2.389499 0.218674 -0.217709 -11.623393 -0.650089 0.034482 16.959391 -0.05812 -2.202939 18.889465 3.823707 2.678566 -2.513859 -0.61316 0.57451 -28.147346 0.635047 -0.269904 5e-06 0.0 -0.0 0.029099 -0.002203 0.035222 0.018666 0.026195 0.037313 0.008588 -0.027951 0.036426 -127.424515 -75.014877 142.299179 35.075615 -53.437168 16.723835 31.543804 0.121611 -0.186912 0.927577 -0.44991 7.489167 17.636625 -26.322725 52.411182 -19.466648 -14.395592 29.410381 -0.0 -8.774819 -0.0 16.121387 -18.135696 6.082673 -0.609777 -1.795653 -3.889326 -4.807088 -11.046808 -2.937848 2e-06 -20.976011 1e-06 -5.01997 -25.033546 -4.031879 6e-06 -1e-06 0.0 -10.634534 -5.686971 -3.565586 10.573271 -17.922945 -3.113897 1e-06 -13.821205 1e-06 -0.501781 -31.181494 -4.027014 -11.712903 -59.77018 7.570469 -13.982712 -7.150197 -2.875041 13.772727 -8.401489 -3.21824 0.347729 -34.211536 0.771656 -0.963032 -17.73337 2.621018 -2e-06 3e-06 1e-06 -17.346416 -20.095213 -4.20178 21.757555 -1.638374 3.866428 -0.0 -6.338821 1e-06 -1.697591 -22.591743 -6.194006 -1e-06 -4e-06 0.0 29.742764 -69.442551 168.39328 39.548969 -46.599957 11.478282 30.149313 -0.353759 -0.029423 -0.633735 -0.330728 11.358902 22.182114 -20.375891 49.933315 -16.701811 -16.74353 28.476526 -3e-06 -12.6906 0.0 16.220297 -17.831839 2.542572 -0.105919 -1.513857 -4.275878 -5.03904 -5.612872 -2.953556 3e-06 -11.02052 -2e-06 -6.111299 -15.89533 -3.84047 0.0 -1e-06 2e-06 -10.283371 -5.68029 -4.341836 11.028294 -11.302404 -2.372635 -1.384269 -14.23858 -6.320122 -0.625441 -26.924187 -3.827601 -4.458871 -50.066956 -3.891157 -13.708526 -7.363476 -3.72094 18.141148 -14.052739 -3.24267 6e-06 -18.787266 -3e-06 -0.429712 -8.456039 2.555501 1e-06 -1e-06 0.0 -15.923538 -20.094484 -5.473579 30.41921 -7.190823 1.735924 2e-06 -8.162924 -1e-06 -1.861904 -22.861469 -6.167945 -1e-06 -3e-06 -1e-06 -177.735321 -4.04985 -10.25532 11.503235 -0.042309 0.094755 -79.579445 1.294453 -5.216587 -5.83282 1.56817 2.13495 -0.999999 1e-06 -0.0 0.894358 -4.671381 -12.973638 14.886976 0.005468 -0.137289 -81.129723 -0.983686 -5.877836 -5.875698 0.644657 1.645818 -1.000002 -0.0 0.0 
0.0 0.0 0.0 0.0 -0.0 0.0 -0.578049 99.824867 5.663282 90.567039 2.69168 90.152184 -2.393222 0.185638 -0.208596 -11.628238 -0.650285 0.029512 16.966593 -0.080068 -2.197585 18.853485 3.795622 2.677905 -2.53212 -0.606643 0.55343 -28.149399 0.629489 -0.322068 6e-06 0.0 -0.0 0.027958 -0.000856 0.035906 0.01616 0.02683 0.039019 0.004884 -0.02587 0.035702 -127.441467 -75.000542 142.360886 35.213833 -53.341919 16.670984 31.554317 0.131262 -0.172248 0.906891 -0.409553 7.42906 17.636637 -26.322733 52.411186 -19.466661 -14.395597 29.410389 -0.0 -8.774822 -1e-06 16.055195 -18.107355 6.109534 -0.609777 -1.795653 -3.889329 -4.807091 -11.046813 -2.93785 3e-06 -20.976019 -2e-06 -5.01997 -25.03356 -4.03188 5e-06 -1e-06 0.0 -10.634534 -5.68697 -3.565588 10.573277 -17.922951 -3.113901 2e-06 -13.821211 -1e-06 -0.501776 -31.181505 -4.027016 -11.701377 -59.708389 7.557971 -13.982716 -7.150199 -2.875041 13.772733 -8.401493 -3.218242 0.347731 -34.211555 0.771653 -0.963029 -17.733372 2.621019 -1e-06 0.0 1e-06 -17.346422 -20.095222 -4.201779 21.757561 -1.638373 3.866425 -0.0 -6.338823 1e-06 -1.697592 -22.591749 -6.194005 0.0 -4e-06 -1e-06 29.648722 -69.414307 168.513916 39.439651 -46.582066 11.515444 30.096321 -0.285052 -0.018255 -0.674867 -0.362234 11.217288 22.182117 -20.375896 49.933319 -16.701813 -16.74353 28.47653 -3e-06 -12.690601 -1e-06 16.204645 -17.801874 2.564987 -0.10592 -1.513858 -4.275882 -5.039041 -5.612871 -2.953554 5e-06 -11.020523 -2e-06 -6.111301 -15.89533 -3.840466 0.0 -1e-06 1e-06 -10.283373 -5.680291 -4.341837 11.028295 -11.302406 -2.37263 -1.384269 -14.238583 -6.320122 -0.625443 -26.924191 -3.827598 -4.462741 -50.03941 -3.873964 -13.708526 -7.363479 -3.720938 18.141148 -14.052739 -3.242674 4e-06 -18.787271 -1e-06 -0.429713 -8.456043 2.555505 2e-06 -1e-06 0.0 -15.923539 -20.09449 -5.473584 30.419218 -7.190825 1.735925 -0.0 -8.162925 -2e-06 -1.861903 -22.861471 -6.167942 -1e-06 -4e-06 -0.0 -177.824402 -4.037547 -10.23236 11.564757 -0.047213 0.098519 -79.579559 1.280331 -5.181689 -5.808041 1.559805 2.13201 -0.999999 0.0 -0.0 0.818531 -4.69591 -12.999461 14.958566 0.004965 -0.139998 -81.151123 -0.99115 -5.909539 -5.844311 0.641168 1.645899 -1.000002 -0.0 -0.0 
